# xmcd
#
# Track frame offsets:
# 150
# 19042
# 38172
# 52668
# 67890
# 86779
# 100855
# 129144
# 142896
# 156550
# 170417
# 184696
# 204077
#
# Disc length: 2879 seconds
#
#
# Revision: 0
# Processed by: cddbd v1.5.2PL0 Copyright (c) Steve Scherf et al.
# Submitted via: FreeRIP 2.944 
#
DISCID=9c0b3d0d
DTITLE=Jean Paul Rene and Terrawheel - Can't Be Satisfied
DYEAR=2007
DGENRE=Blues
TTITLE0=Hoochie Coochie Man
TTITLE1=Too Drunk
TTITLE2=Memo From O.S.
TTITLE3=Love Flue
TTITLE4=Voodoo Chile
TTITLE5=Torre's Walk
TTITLE6=Sun Is Shining
TTITLE7=Crossroad
TTITLE8=Make Believe
TTITLE9=Blues
TTITLE10=Can't Be Satisfied
TTITLE11=Blue Son
TTITLE12=Buzz Buzz
EXTD=
EXTT0=
EXTT1=
EXTT2=
EXTT3=
EXTT4=
EXTT5=
EXTT6=
EXTT7=
EXTT8=
EXTT9=
EXTT10=
EXTT11=
EXTT12=
PLAYORDER=
